<svg width="26" height="26" viewBox="0 0 26 26" fill="none" xmlns="http://www.w3.org/2000/svg">
<path opacity="0.5" d="M18.2048 13.2216L25.3071 20.3238C25.7332 20.75 25.9463 21.3181 25.9463 21.8863C25.9463 22.5255 25.7332 23.0937 25.3071 23.5199L23.7446 25.0824C23.2474 25.5085 22.6792 25.7216 22.1111 25.7216C21.4719 25.7216 20.9747 25.5085 20.5486 25.0824L13.4463 17.9801L6.34402 25.0824C5.91788 25.5085 5.3497 25.7216 4.78152 25.7216C4.14231 25.7216 3.57413 25.5085 3.14799 25.0824L1.58549 23.5199C1.15936 23.0937 0.946289 22.5255 0.946289 21.8863C0.946289 21.3181 1.15936 20.75 1.58549 20.3238L8.68777 13.2216L1.58549 6.11929C1.15936 5.69315 0.946289 5.19599 0.946289 4.55679C0.946289 3.9886 1.15936 3.42042 1.58549 2.92326L3.14799 1.36076C3.57413 0.934626 4.14231 0.721558 4.78152 0.721558C5.3497 0.721558 5.91788 0.934626 6.34402 1.36076L13.4463 8.46304L20.5486 1.36076C20.9747 0.934626 21.4719 0.721558 22.1111 0.721558C22.6792 0.721558 23.2474 0.934626 23.7446 1.36076L25.3071 2.92326C25.7332 3.42042 25.9463 3.9886 25.9463 4.55679C25.9463 5.19599 25.7332 5.69315 25.3071 6.11929L18.2048 13.2216Z" fill="#40BFFF"/>
</svg>
