<svg width="39" height="26" viewBox="0 0 39 26" fill="none" xmlns="http://www.w3.org/2000/svg">
<path d="M1.85069 0.593994H36.8507C37.074 0.598285 37.2943 0.646599 37.499 0.736084C37.7037 0.825569 37.8887 0.95444 38.0436 1.11548C38.1984 1.27652 38.3199 1.46651 38.4012 1.67456C38.4826 1.88261 38.5222 2.10454 38.5177 2.32788V24.0022C38.5222 24.2255 38.4826 24.4475 38.4012 24.6555C38.3199 24.8636 38.1984 25.0536 38.0436 25.2146C37.8887 25.3756 37.7037 25.5045 37.499 25.594C37.2943 25.6835 37.074 25.7318 36.8507 25.7361H1.85069C1.62734 25.7318 1.40705 25.6835 1.20237 25.594C0.997693 25.5045 0.812634 25.3756 0.657818 25.2146C0.503001 25.0536 0.381384 24.8636 0.300029 24.6555C0.218675 24.4475 0.179188 24.2255 0.183696 24.0022V2.32788C0.179188 2.10454 0.218675 1.88261 0.300029 1.67456C0.381384 1.46651 0.503001 1.27652 0.657818 1.11548C0.812634 0.95444 0.997693 0.825569 1.20237 0.736084C1.40705 0.646599 1.62734 0.598285 1.85069 0.593994Z" fill="url(#paint0_linear_8_528)"/>
<defs>
<linearGradient id="paint0_linear_8_528" x1="19.3507" y1="25.7361" x2="19.3507" y2="0.593994" gradientUnits="userSpaceOnUse">
<stop stop-color="#E59703"/>
<stop offset="0.231" stop-color="#E59703"/>
<stop offset="0.234" stop-color="white"/>
<stop offset="0.761" stop-color="white"/>
<stop offset="0.766" stop-color="#5457BB"/>
<stop offset="1" stop-color="#5457BB"/>
</linearGradient>
</defs>
</svg>
