<svg width="65" height="34" viewBox="0 0 65 34" fill="none" xmlns="http://www.w3.org/2000/svg">
<path d="M62.1504 0.0852051H2.15039C1.04582 0.0852051 0.150391 0.980636 0.150391 2.08521V31.0852C0.150391 32.1898 1.04582 33.0852 2.15039 33.0852H62.1504C63.255 33.0852 64.1504 32.1898 64.1504 31.0852V2.08521C64.1504 0.980636 63.255 0.0852051 62.1504 0.0852051Z" fill="#FF4858"/>
<path d="M24.3822 22.0852V10.0792H22.8882V15.2452H15.8682V10.0792H14.3742V22.0852H15.8682V16.5772H22.8882V22.0852H24.3822ZM32.6607 22.3012C36.2067 22.3012 38.6187 19.6372 38.6187 16.0912C38.6187 12.5452 36.2067 9.8812 32.6607 9.8812C29.0967 9.8812 26.7027 12.5452 26.7027 16.0912C26.7027 19.6372 29.0967 22.3012 32.6607 22.3012ZM32.6607 20.9692C29.9607 20.9692 28.2507 18.8812 28.2507 16.0912C28.2507 13.2832 29.9607 11.2132 32.6607 11.2132C35.3427 11.2132 37.0707 13.2832 37.0707 16.0912C37.0707 18.8812 35.3427 20.9692 32.6607 20.9692ZM44.9242 22.0852V11.4112H48.7402V10.0792H39.6322V11.4112H43.4302V22.0852H44.9242Z" fill="white"/>
</svg>
