<svg width="53" height="52" viewBox="0 0 53 52" fill="none" xmlns="http://www.w3.org/2000/svg">
<g opacity="0.25">
<path opacity="0.25" d="M26.4043 50.5852C40.2114 50.5852 51.4043 39.6162 51.4043 26.0852C51.4043 12.5542 40.2114 1.58521 26.4043 1.58521C12.5972 1.58521 1.4043 12.5542 1.4043 26.0852C1.4043 39.6162 12.5972 50.5852 26.4043 50.5852Z" stroke="#33A0FF" stroke-width="2"/>
</g>
<path fill-rule="evenodd" clip-rule="evenodd" d="M29.3404 20.1232C29.9843 20.1239 30.6142 20.3104 31.1547 20.6603C31.6951 21.0103 32.123 21.5089 32.387 22.0961C32.6509 22.6833 32.7398 23.3343 32.6429 23.9708C32.5459 24.6073 32.2673 25.2022 31.8404 25.6842C31.2274 26.3752 26.0005 31.2683 26.0005 31.2683C26.0005 31.2683 20.7625 26.3752 20.1495 25.6732C19.6083 25.0658 19.3106 24.2798 19.3135 23.4663C19.3286 22.5895 19.6875 21.7538 20.3129 21.1391C20.9383 20.5245 21.7801 20.1801 22.657 20.1801C23.5338 20.1801 24.3756 20.5245 25.001 21.1391C25.6263 21.7538 25.9853 22.5895 26.0005 23.4663C26.0005 23.0271 26.0869 22.5922 26.255 22.1865C26.423 21.7808 26.6694 21.4122 26.9799 21.1017C27.2904 20.7912 27.659 20.5448 28.0647 20.3768C28.4705 20.2087 28.9053 20.1223 29.3445 20.1223L29.3404 20.1232ZM29.3445 17.8933C28.1382 17.8912 26.9641 18.2826 26.0005 19.0082C24.8965 18.1889 23.5286 17.8064 22.1598 17.9345C20.7909 18.0626 19.5177 18.6921 18.585 19.7021C17.6522 20.7121 17.1256 22.0311 17.1065 23.4058C17.0874 24.7805 17.5771 26.1137 18.4814 27.1492C19.1074 27.8672 23.2304 31.7273 24.4814 32.8933C24.8944 33.2794 25.4386 33.4942 26.004 33.4942C26.5693 33.4942 27.1135 33.2794 27.5264 32.8933C28.7704 31.7283 32.8764 27.8783 33.5104 27.1613C34.2218 26.3577 34.686 25.3659 34.8473 24.3049C35.0086 23.244 34.8602 22.159 34.4198 21.1804C33.9794 20.2017 33.2658 19.371 32.3648 18.7881C31.4638 18.2052 30.4136 17.8948 29.3404 17.8942L29.3445 17.8933Z" fill="#33A0FF"/>
</svg>
