<svg width="52" height="52" viewBox="0 0 52 52" fill="none" xmlns="http://www.w3.org/2000/svg">
<g opacity="0.25">
<path opacity="0.25" d="M25.9043 50.5852C39.4353 50.5852 50.4043 39.6162 50.4043 26.0852C50.4043 12.5542 39.4353 1.58521 25.9043 1.58521C12.3733 1.58521 1.4043 12.5542 1.4043 26.0852C1.4043 39.6162 12.3733 50.5852 25.9043 50.5852Z" stroke="#33A0FF" stroke-width="2"/>
</g>
<path fill-rule="evenodd" clip-rule="evenodd" d="M31.9581 29.0402C32.4721 29.0395 32.97 28.8605 33.3668 28.5337C33.7636 28.2069 34.0348 27.7526 34.1341 27.2482L35.2491 21.6752C35.3136 21.3523 35.3058 21.0189 35.2262 20.6993C35.1466 20.3797 34.9971 20.0818 34.7886 19.8268C34.58 19.5719 34.3176 19.3663 34.0201 19.225C33.7226 19.0836 33.3974 19.0099 33.0681 19.0092H21.9681V17.8942C21.9678 17.5994 21.8508 17.3166 21.6426 17.1078C21.4344 16.8991 21.1519 16.7813 20.8571 16.7802H18.6421C18.3523 16.7889 18.0772 16.9101 17.8753 17.1182C17.6734 17.3262 17.5605 17.6048 17.5605 17.8947C17.5605 18.1846 17.6734 18.4632 17.8753 18.6713C18.0772 18.8793 18.3523 19.0005 18.6421 19.0092H19.7571V30.1542C19.3158 30.1523 18.8839 30.2813 18.516 30.525C18.1481 30.7687 17.8609 31.1161 17.6906 31.5233C17.5204 31.9304 17.4748 32.3788 17.5597 32.8119C17.6446 33.2449 17.856 33.6431 18.1674 33.9558C18.4787 34.2685 18.8759 34.4818 19.3085 34.5686C19.7412 34.6554 20.1899 34.6119 20.5977 34.4435C21.0056 34.2751 21.3544 33.9894 21.5997 33.6226C21.8451 33.2558 21.9761 32.8245 21.9761 32.3832H29.7421C29.7439 32.8219 29.8755 33.2502 30.1206 33.6141C30.3656 33.978 30.7129 34.2611 31.1187 34.4278C31.5245 34.5944 31.9706 34.6371 32.4007 34.5505C32.8307 34.4638 33.2254 34.2516 33.535 33.9408C33.8446 33.63 34.0551 33.2344 34.1401 32.804C34.225 32.3736 34.1805 31.9277 34.0122 31.5226C33.8439 31.1175 33.5594 30.7713 33.1945 30.5277C32.8296 30.2842 32.4008 30.1542 31.9621 30.1542H21.9751V29.0402H31.9581ZM33.0731 21.2402L31.9581 26.8132H21.9711V21.2402H33.0711H33.0731Z" fill="#33A0FF"/>
</svg>
